<?xml version="1.0" encoding="utf-8"?>
<!-- Generator: Adobe Illustrator 22.0.0, SVG Export Plug-In . SVG Version: 6.00 Build 0)  -->
<svg version="1.1" id="Icon" xmlns="http://www.w3.org/2000/svg" xmlns:xlink="http://www.w3.org/1999/xlink" x="0px" y="0px"
	 viewBox="0 0 250 250" style="enable-background:new 0 0 250 250;" xml:space="preserve">
<style type="text/css">
	.st0{display:none;fill:#1B75BC;}
	.st1{fill:url(#SVGID_1_);}
	.st2{fill:url(#SVGID_2_);}
	.st3{fill:url(#SVGID_3_);}
	.st4{filter:url(#Drop_Shadow);}
	.st5{fill:url(#SVGID_4_);}
</style>
<filter  id="Drop_Shadow">
	<feGaussianBlur  in="SourceAlpha" stdDeviation="5"></feGaussianBlur>
	<feOffset  dx="0" dy="3"></feOffset>
	<feComponentTransfer>
		<feFuncA  slope="0.4" type="linear"></feFuncA>
	</feComponentTransfer>
	<feMerge>
		<feMergeNode></feMergeNode>
		<feMergeNode  in="SourceGraphic"></feMergeNode>
	</feMerge>
</filter>
<rect id="Test_Background" x="-7.7" y="-9.3" class="st0" width="267.7" height="270.2"/>
<g id="Cube">
	<linearGradient id="SVGID_1_" gradientUnits="userSpaceOnUse" x1="173.4978" y1="38.1733" x2="75.7192" y2="108.5611">
		<stop  offset="0" style="stop-color:#45C7EF"/>
		<stop  offset="1" style="stop-color:#2EB1E6"/>
	</linearGradient>
	<path class="st1" d="M227.1,70L131,1.9c-3.6-2.6-8.4-2.6-12,0L22.8,70.1c-1.3,1-2.4,2.3-3.1,3.7L125,148.5l105.3-74.6
		C229.6,72.3,228.5,71,227.1,70z"/>
	<linearGradient id="SVGID_2_" gradientUnits="userSpaceOnUse" x1="113.449" y1="152.0005" x2="29.4382" y2="172.2711">
		<stop  offset="0" style="stop-color:#1268B3"/>
		<stop  offset="1" style="stop-color:#125795"/>
	</linearGradient>
	<path class="st2" d="M119,248.1c1.8,1.3,3.9,1.9,6,1.9V148.5c-3.2-2.3-94.4-66.9-105.3-74.6c-0.7,1.4-1.1,3-1.1,4.6l0,93.1
		c0,3.4,1.6,6.5,4.4,8.5"/>
	<linearGradient id="SVGID_3_" gradientUnits="userSpaceOnUse" x1="215.828" y1="116.253" x2="153.5013" y2="191.8173">
		<stop  offset="0" style="stop-color:#2E8FCE"/>
		<stop  offset="1" style="stop-color:#2F83C5"/>
	</linearGradient>
	<path class="st3" d="M230.3,73.8c-10.9,7.7-102.1,72.4-105.3,74.6V250c2.1,0,4.2-0.6,6-1.9c19.4-13.7,79.3-56.2,96-68.1
		c2.7-1.9,4.4-5.1,4.4-8.5V78.4C231.4,76.8,231,75.2,230.3,73.8z"/>
</g>
<g id="_x23_" class="st4">
	<linearGradient id="SVGID_4_" gradientUnits="userSpaceOnUse" x1="125" y1="76" x2="125" y2="155.3585">
		<stop  offset="0" style="stop-color:#FFFFFF"/>
		<stop  offset="1" style="stop-color:#F1F2F2"/>
	</linearGradient>
	<path class="st5" d="M170.4,98.8c2.2,0,4,0.5,5.3,1.6c1.3,1.1,1.8,2.7,1.6,4.9c-0.1,2-1,3.6-2.8,4.7c-1.7,1.1-3.8,1.7-6.3,1.7
		h-11.8l-4.3,25.3h11.7c2.3,0,4.1,0.6,5.3,1.7c1.2,1.1,1.8,2.6,1.8,4.5c0,1.7-0.8,3.2-2.4,4.6c-1.6,1.4-3.9,2.1-6.8,2.1h-12.5
		l-5.7,32.9c-0.4,2.2-1.4,4.1-2.8,5.5c-1.4,1.4-3.3,2.2-5.7,2.2c-2.2,0-3.9-0.8-5-2.3c-1.1-1.6-1.4-3.5-1-5.8l5.3-32.4h-27.9
		l-5.5,32.9c-0.4,2.1-1.4,3.9-2.9,5.4s-3.4,2.3-5.6,2.3c-2.2,0-3.9-0.7-5-2.1c-1.1-1.4-1.5-3.4-1.2-6.1l5.7-32.4H79.5
		c-2.2,0-3.9-0.5-5.2-1.6c-1.2-1.1-1.8-2.5-1.7-4.3c0.2-2.3,1.1-4.1,2.7-5.3c1.6-1.2,3.6-1.8,6.2-1.8h13.3l4.2-25.3H86.2
		c-2.1,0-3.8-0.5-5.1-1.4c-1.3-0.9-1.9-2.4-1.9-4.4c0-2.3,0.8-4.1,2.4-5.3c1.6-1.2,3.8-1.8,6.6-1.8h13.8l5.7-31.4
		c0.6-2.3,1.5-4.2,2.9-5.7c1.4-1.4,3.3-2.2,5.6-2.2c2.2,0,3.9,0.8,5.1,2.3c1.2,1.6,1.5,3.5,1.1,5.8l-5.7,31h28l5.7-31.4
		c0.3-2.2,1.3-4.1,2.8-5.6s3.4-2.3,5.8-2.3c2.3,0,4,0.8,5.1,2.3c1.1,1.6,1.3,3.5,0.8,5.8l-5.3,31H170.4z M137.4,137l4.3-25.3h-28
		l-4.2,25.3H137.4z"/>
</g>
</svg>
